<mxfile host="app.diagrams.net" modified="2022-10-13T22:49:40.323Z" agent="5.0 (Windows NT 6.1; WOW64) AppleWebKit/537.36 (KHTML, like Gecko) Chrome/106.0.0.0 Safari/537.36" etag="P-LIWdRccuCGUC429HGL" version="20.4.0" type="github">
  <diagram id="7W7nLG8VNAHlzyyDeXmR" name="Página-1">
    <mxGraphModel dx="760" dy="423" grid="1" gridSize="10" guides="1" tooltips="1" connect="1" arrows="1" fold="1" page="1" pageScale="1" pageWidth="827" pageHeight="1169" math="0" shadow="0">
      <root>
        <mxCell id="0" />
        <mxCell id="1" parent="0" />
        <mxCell id="ulifB-dk0_XhCq3zrKw4-21" value="&amp;laquo;interface&amp;raquo;&lt;br&gt;&lt;b&gt;Name&lt;/b&gt;" style="html=1;fontSize=9;" vertex="1" parent="1">
          <mxGeometry x="80" y="110" width="410" height="240" as="geometry" />
        </mxCell>
        <mxCell id="ulifB-dk0_XhCq3zrKw4-4" style="edgeStyle=orthogonalEdgeStyle;rounded=0;orthogonalLoop=1;jettySize=auto;html=1;exitX=1;exitY=0.3333333333333333;exitDx=0;exitDy=0;exitPerimeter=0;" edge="1" parent="1" source="ulifB-dk0_XhCq3zrKw4-1" target="ulifB-dk0_XhCq3zrKw4-5">
          <mxGeometry relative="1" as="geometry">
            <mxPoint x="130" y="280" as="targetPoint" />
            <Array as="points">
              <mxPoint x="110" y="267" />
              <mxPoint x="110" y="267" />
            </Array>
          </mxGeometry>
        </mxCell>
        <mxCell id="ulifB-dk0_XhCq3zrKw4-1" value="Aluno" style="shape=umlActor;verticalLabelPosition=bottom;verticalAlign=top;html=1;outlineConnect=0;" vertex="1" parent="1">
          <mxGeometry x="30" y="240" width="40" height="80" as="geometry" />
        </mxCell>
        <mxCell id="ulifB-dk0_XhCq3zrKw4-18" style="edgeStyle=orthogonalEdgeStyle;rounded=0;orthogonalLoop=1;jettySize=auto;html=1;entryX=1;entryY=0.5;entryDx=0;entryDy=0;fontSize=9;exitX=0;exitY=0.3333333333333333;exitDx=0;exitDy=0;exitPerimeter=0;" edge="1" parent="1" source="ulifB-dk0_XhCq3zrKw4-2" target="ulifB-dk0_XhCq3zrKw4-17">
          <mxGeometry relative="1" as="geometry" />
        </mxCell>
        <mxCell id="ulifB-dk0_XhCq3zrKw4-2" value="Professor" style="shape=umlActor;verticalLabelPosition=bottom;verticalAlign=top;html=1;outlineConnect=0;" vertex="1" parent="1">
          <mxGeometry x="500" y="240" width="40" height="80" as="geometry" />
        </mxCell>
        <mxCell id="ulifB-dk0_XhCq3zrKw4-5" value="&lt;font style=&quot;font-size: 10px;&quot;&gt;Assistir um capítulo&lt;/font&gt;" style="ellipse;whiteSpace=wrap;html=1;" vertex="1" parent="1">
          <mxGeometry x="120" y="250" width="100" height="40" as="geometry" />
        </mxCell>
        <mxCell id="ulifB-dk0_XhCq3zrKw4-7" value="&lt;font style=&quot;font-size: 10px;&quot;&gt;Resolver um exercício&lt;/font&gt;" style="ellipse;whiteSpace=wrap;html=1;" vertex="1" parent="1">
          <mxGeometry x="120" y="300" width="100" height="40" as="geometry" />
        </mxCell>
        <mxCell id="ulifB-dk0_XhCq3zrKw4-8" value="&lt;font style=&quot;font-size: 10px;&quot;&gt;Comprar um curso&lt;/font&gt;" style="ellipse;whiteSpace=wrap;html=1;" vertex="1" parent="1">
          <mxGeometry x="120" y="200" width="100" height="40" as="geometry" />
        </mxCell>
        <mxCell id="ulifB-dk0_XhCq3zrKw4-9" value="" style="endArrow=classic;html=1;rounded=0;fontSize=10;entryX=0;entryY=0.5;entryDx=0;entryDy=0;" edge="1" parent="1" target="ulifB-dk0_XhCq3zrKw4-8">
          <mxGeometry width="50" height="50" relative="1" as="geometry">
            <mxPoint x="90" y="270" as="sourcePoint" />
            <mxPoint x="250" y="260" as="targetPoint" />
            <Array as="points">
              <mxPoint x="90" y="220" />
            </Array>
          </mxGeometry>
        </mxCell>
        <mxCell id="ulifB-dk0_XhCq3zrKw4-10" value="" style="endArrow=classic;html=1;rounded=0;fontSize=10;entryX=0;entryY=0.5;entryDx=0;entryDy=0;" edge="1" parent="1" target="ulifB-dk0_XhCq3zrKw4-7">
          <mxGeometry width="50" height="50" relative="1" as="geometry">
            <mxPoint x="90" y="270" as="sourcePoint" />
            <mxPoint x="130" y="220" as="targetPoint" />
            <Array as="points">
              <mxPoint x="90" y="320" />
            </Array>
          </mxGeometry>
        </mxCell>
        <mxCell id="ulifB-dk0_XhCq3zrKw4-11" value="&lt;font style=&quot;font-size: 10px;&quot;&gt;Pagar com boleto&lt;/font&gt;" style="ellipse;whiteSpace=wrap;html=1;" vertex="1" parent="1">
          <mxGeometry x="120" y="120" width="100" height="40" as="geometry" />
        </mxCell>
        <mxCell id="ulifB-dk0_XhCq3zrKw4-12" value="&lt;font style=&quot;font-size: 9px;&quot;&gt;Pagar com cartão de crédito&lt;/font&gt;" style="ellipse;whiteSpace=wrap;html=1;" vertex="1" parent="1">
          <mxGeometry x="240" y="120" width="100" height="40" as="geometry" />
        </mxCell>
        <mxCell id="ulifB-dk0_XhCq3zrKw4-15" value="Extends" style="endArrow=block;endSize=16;endFill=0;html=1;rounded=0;fontSize=9;exitX=0.5;exitY=1;exitDx=0;exitDy=0;entryX=0.5;entryY=0;entryDx=0;entryDy=0;" edge="1" parent="1" source="ulifB-dk0_XhCq3zrKw4-11" target="ulifB-dk0_XhCq3zrKw4-8">
          <mxGeometry width="160" relative="1" as="geometry">
            <mxPoint x="100" y="210" as="sourcePoint" />
            <mxPoint x="260" y="210" as="targetPoint" />
          </mxGeometry>
        </mxCell>
        <mxCell id="ulifB-dk0_XhCq3zrKw4-16" value="Extends" style="endArrow=block;endSize=16;endFill=0;html=1;rounded=0;fontSize=9;exitX=0.5;exitY=1;exitDx=0;exitDy=0;entryX=1;entryY=0;entryDx=0;entryDy=0;" edge="1" parent="1" source="ulifB-dk0_XhCq3zrKw4-12" target="ulifB-dk0_XhCq3zrKw4-8">
          <mxGeometry width="160" relative="1" as="geometry">
            <mxPoint x="180" y="170" as="sourcePoint" />
            <mxPoint x="180" y="210" as="targetPoint" />
          </mxGeometry>
        </mxCell>
        <mxCell id="ulifB-dk0_XhCq3zrKw4-17" value="&lt;font style=&quot;font-size: 10px;&quot;&gt;Revisar exercício&lt;/font&gt;" style="ellipse;whiteSpace=wrap;html=1;" vertex="1" parent="1">
          <mxGeometry x="350" y="300" width="100" height="40" as="geometry" />
        </mxCell>
        <mxCell id="ulifB-dk0_XhCq3zrKw4-19" value="Depende do&amp;nbsp;&lt;br&gt;aluno resolver&amp;nbsp;&lt;br&gt;o exercício" style="endArrow=open;endSize=12;dashed=1;html=1;rounded=0;fontSize=9;exitX=0;exitY=0.5;exitDx=0;exitDy=0;entryX=1;entryY=0.5;entryDx=0;entryDy=0;" edge="1" parent="1" source="ulifB-dk0_XhCq3zrKw4-17" target="ulifB-dk0_XhCq3zrKw4-7">
          <mxGeometry x="0.0385" width="160" relative="1" as="geometry">
            <mxPoint x="130" y="290" as="sourcePoint" />
            <mxPoint x="290" y="290" as="targetPoint" />
            <mxPoint as="offset" />
          </mxGeometry>
        </mxCell>
      </root>
    </mxGraphModel>
  </diagram>
</mxfile>
